<?xml version="1.0" standalone="no"?>
<!DOCTYPE svg PUBLIC "-//W3C//DTD SVG 20010904//EN"
 "http://www.w3.org/TR/2001/REC-SVG-20010904/DTD/svg10.dtd">
<svg version="1.0" xmlns="http://www.w3.org/2000/svg"
 width="256.000000pt" height="256.000000pt" viewBox="0 0 256.000000 256.000000"
 preserveAspectRatio="xMidYMid meet">
<metadata>
Created by potrace 1.11, written by Peter Selinger 2001-2013
</metadata>
<g transform="translate(0.000000,256.000000) scale(0.100000,-0.100000)"
fill="#000000" stroke="none">
<path d="M1073 2542 c-134 -48 -222 -183 -239 -367 -6 -64 -4 -75 9 -75 11 0
15 12 16 53 1 67 25 158 58 218 79 145 257 203 411 134 96 -43 150 -113 188
-240 16 -55 17 -132 18 -959 1 -682 -2 -917 -12 -974 -31 -188 -159 -307 -328
-305 -178 1 -299 121 -331 328 -3 22 -6 379 -7 793 l0 752 -68 0 -68 0 0 45
c0 42 2 45 28 46 29 1 44 3 107 14 92 16 216 83 267 143 l24 29 1 -901 c0
-795 2 -909 17 -969 26 -111 89 -217 128 -217 18 0 17 3 -11 35 -54 62 -86
137 -99 230 -4 28 -7 455 -6 950 0 839 1 904 18 960 23 77 48 126 88 171 31
35 31 36 7 32 -30 -4 -79 -75 -109 -156 -32 -89 -51 -120 -103 -168 -70 -67
-196 -116 -322 -128 -27 -2 -52 -5 -55 -5 -3 -1 -6 -32 -6 -69 l0 -69 64 1
c35 1 65 -1 68 -5 2 -4 4 -341 4 -750 1 -815 0 -812 61 -936 56 -115 165 -183
295 -183 88 0 139 14 204 58 67 45 112 112 145 212 l24 75 0 925 c1 900 0 928
-19 999 -27 97 -52 144 -106 197 -62 63 -120 86 -224 91 -65 3 -97 -1 -137
-15z"/>
<path d="M1424 2549 c-8 -14 9 -17 88 -17 169 0 289 -108 329 -297 18 -87 18
-1823 -1 -1910 -27 -131 -88 -218 -185 -266 -55 -27 -75 -31 -148 -33 -93 -1
-120 -11 -63 -22 57 -10 166 2 216 24 61 26 133 99 165 168 54 114 54 104 52
1109 l-2 930 -22 66 c-43 125 -135 221 -241 249 -47 12 -180 12 -188 -1z"/>
</g>
</svg>
